<svg width="1080" height="1080" viewBox="0 0 1080 1080" fill="none" xmlns="http://www.w3.org/2000/svg">
<path d="M934.319 449.131C774.325 617.998 1236.36 563.419 988.234 824.765C818.868 873.281 639.008 841.002 486.247 840.568C326.664 840.114 196.199 869.372 116.231 820.473C-149.591 657.926 203.68 541.885 140.025 489.638C-308.922 121.152 1416.84 -9.61206 934.319 449.131Z" fill="#6095F6"/>
<path d="M763.715 633.189C675.988 725.782 929.329 695.855 793.278 839.157C700.411 865.759 601.79 848.06 518.028 847.822C430.525 847.573 358.988 863.616 315.14 836.803C169.384 747.676 363.09 684.048 328.187 655.4C82.0197 453.351 1028.29 381.65 763.715 633.189Z" fill="#4080F4"/>
<path d="M850.617 471.154C727.679 634.066 1082.7 581.412 892.045 833.539C761.906 880.345 623.702 849.205 506.323 848.786C383.7 848.348 283.451 876.574 222.005 829.399C17.7495 672.585 289.2 560.637 240.288 510.233C-104.679 154.743 1221.38 28.5911 850.617 471.154Z" stroke="#4080F4" stroke-width="12.9685" stroke-linecap="round" stroke-dasharray="311.24 311.24"/>
<path d="M661.594 313H442.352C416.753 313 396 333.753 396 359.352V728.244C396 753.844 416.753 774.597 442.352 774.597H661.594C687.194 774.597 707.947 753.844 707.947 728.244V359.352C707.947 333.753 687.194 313 661.594 313Z" fill="#6E2AFF"/>
<path d="M651.305 323.94H452.642C429.445 323.94 410.64 342.745 410.64 365.942V700.21C410.64 723.406 429.445 742.211 452.642 742.211H651.305C674.502 742.211 693.307 723.406 693.307 700.21V365.942C693.307 342.745 674.502 323.94 651.305 323.94Z" fill="white"/>
<path d="M1044.22 896.612C1044.22 870.992 1050.07 764 1029.69 764H550.849H45.4059C25.0237 764 33.9428 870.992 33.9428 896.612C33.9428 922.231 50.4658 943 70.848 943H1007.32C1027.7 943 1044.22 922.231 1044.22 896.612Z" fill="#4080F4" stroke="#4080F4" stroke-width="16.2106" stroke-linecap="round" stroke-linejoin="round"/>
<path d="M673 598.289L719.878 836.019L673 598.289Z" fill="#D4AA00"/>
<path d="M673 598.289L719.878 836.019" stroke="#806600" stroke-width="10.1316" stroke-linecap="round" stroke-linejoin="round"/>
<path d="M734.556 594.637L781.434 832.367L734.556 594.637Z" fill="#D4AA00"/>
<path d="M734.556 594.637L781.434 832.367" stroke="#806600" stroke-width="10.1316" stroke-linecap="round" stroke-linejoin="round"/>
<path d="M673 594L734.556 594.637L673 594Z" fill="#D4AA00"/>
<path d="M673 594L734.556 594.637" stroke="#806600" stroke-width="10.1316" stroke-linecap="round" stroke-linejoin="round"/>
<path d="M679.184 624.783L740.739 625.42L679.184 624.783Z" fill="#D4AA00"/>
<path d="M679.184 624.783L740.739 625.42" stroke="#806600" stroke-width="10.1316" stroke-linecap="round" stroke-linejoin="round"/>
<path d="M686.923 661.762L748.479 662.399L686.923 661.762Z" fill="#D4AA00"/>
<path d="M686.923 661.762L748.479 662.399" stroke="#806600" stroke-width="10.1316" stroke-linejoin="round"/>
<path d="M694.238 698.74L755.794 699.377L694.238 698.74Z" fill="#D4AA00"/>
<path d="M694.238 698.74L755.794 699.377" stroke="#806600" stroke-width="10.1316" stroke-linejoin="round"/>
<path d="M701.543 732.708L763.099 733.345L701.543 732.708Z" fill="#D4AA00"/>
<path d="M701.543 732.708L763.099 733.345" stroke="#806600" stroke-width="10.1316" stroke-linejoin="round"/>
<path d="M707.132 765.387L768.688 766.024L707.132 765.387Z" fill="#D4AA00"/>
<path d="M707.132 765.387L768.688 766.024" stroke="#806600" stroke-width="10.1316" stroke-linejoin="round"/>
<path d="M318.074 648.796L348.632 803.761" stroke="#806600" stroke-width="6.60432" stroke-linecap="round" stroke-linejoin="round"/>
<path d="M358.199 646.415L388.757 801.38" stroke="#806600" stroke-width="6.60432" stroke-linecap="round" stroke-linejoin="round"/>
<path d="M318.074 646L358.2 646.415" stroke="#806600" stroke-width="6.60432" stroke-linecap="round" stroke-linejoin="round"/>
<path d="M322.105 666.066L362.23 666.481" stroke="#806600" stroke-width="6.60432" stroke-linecap="round" stroke-linejoin="round"/>
<path d="M327.15 690.17L367.276 690.585" stroke="#806600" stroke-width="6.60432" stroke-linejoin="round"/>
<path d="M331.918 714.275L372.044 714.69" stroke="#806600" stroke-width="6.60432" stroke-linejoin="round"/>
<path d="M336.68 736.417L376.805 736.833" stroke="#806600" stroke-width="6.60432" stroke-linejoin="round"/>
<path d="M340.324 757.719L380.449 758.134" stroke="#806600" stroke-width="6.60432" stroke-linejoin="round"/>
<path d="M357.683 649.211L327.125 804.176" stroke="#806600" stroke-width="6.60432" stroke-linecap="round" stroke-linejoin="round"/>
<path d="M317.558 646.83L287 801.795" stroke="#806600" stroke-width="6.60432" stroke-linecap="round" stroke-linejoin="round"/>
<path d="M357.683 646.415L317.558 646.83" stroke="#806600" stroke-width="6.60432" stroke-linecap="round" stroke-linejoin="round"/>
<path d="M353.652 666.481L313.527 666.896" stroke="#806600" stroke-width="6.60432" stroke-linecap="round" stroke-linejoin="round"/>
<path d="M348.607 690.585L308.482 691.001" stroke="#806600" stroke-width="6.60432" stroke-linejoin="round"/>
<path d="M343.839 714.69L303.714 715.105" stroke="#806600" stroke-width="6.60432" stroke-linejoin="round"/>
<path d="M339.078 736.833L298.952 737.248" stroke="#806600" stroke-width="6.60432" stroke-linejoin="round"/>
<path d="M335.434 758.134L295.308 758.549" stroke="#806600" stroke-width="6.60432" stroke-linejoin="round"/>
<path d="M559.117 345.083H514.708C513.212 345.083 512 346.295 512 347.791C512 349.286 513.212 350.499 514.708 350.499H559.117C560.612 350.499 561.825 349.286 561.825 347.791C561.825 346.295 560.612 345.083 559.117 345.083Z" fill="#FFD42A" stroke="#D9D9D9" stroke-width="16.2106" stroke-linecap="round" stroke-linejoin="round"/>
<path d="M598.238 351.582C600.332 351.582 602.029 349.885 602.029 347.791C602.029 345.697 600.332 344 598.238 344C596.144 344 594.447 345.697 594.447 347.791C594.447 349.885 596.144 351.582 598.238 351.582Z" fill="#111827" stroke="#E0E0E0" stroke-width="16.2106" stroke-linecap="round" stroke-linejoin="round"/>
<g filter="url(#filter0_d_515_4523)">
<path d="M420.835 828V781.455H432.085V800.136H450.426V781.455H461.653V828H450.426V809.295H432.085V828H420.835ZM478.551 828.591C476.324 828.591 474.347 828.22 472.619 827.477C470.907 826.72 469.551 825.583 468.551 824.068C467.566 822.538 467.074 820.621 467.074 818.318C467.074 816.379 467.415 814.742 468.097 813.409C468.778 812.076 469.718 810.992 470.915 810.159C472.112 809.326 473.491 808.697 475.051 808.273C476.612 807.833 478.278 807.538 480.051 807.386C482.036 807.205 483.634 807.015 484.847 806.818C486.059 806.606 486.938 806.311 487.483 805.932C488.044 805.538 488.324 804.985 488.324 804.273V804.159C488.324 802.992 487.922 802.091 487.119 801.455C486.316 800.818 485.233 800.5 483.869 800.5C482.4 800.5 481.218 800.818 480.324 801.455C479.43 802.091 478.862 802.97 478.619 804.091L468.369 803.727C468.672 801.606 469.453 799.712 470.71 798.045C471.983 796.364 473.725 795.045 475.938 794.091C478.165 793.121 480.839 792.636 483.96 792.636C486.188 792.636 488.241 792.902 490.119 793.432C491.998 793.947 493.634 794.705 495.028 795.705C496.422 796.689 497.498 797.902 498.256 799.341C499.028 800.78 499.415 802.424 499.415 804.273V828H488.96V823.136H488.688C488.066 824.318 487.271 825.318 486.301 826.136C485.347 826.955 484.218 827.568 482.915 827.977C481.627 828.386 480.172 828.591 478.551 828.591ZM481.983 821.318C483.18 821.318 484.256 821.076 485.21 820.591C486.18 820.106 486.953 819.439 487.528 818.591C488.104 817.727 488.392 816.727 488.392 815.591V812.273C488.074 812.439 487.688 812.591 487.233 812.727C486.794 812.864 486.309 812.992 485.778 813.114C485.248 813.235 484.703 813.341 484.142 813.432C483.581 813.523 483.044 813.606 482.528 813.682C481.483 813.848 480.589 814.106 479.847 814.455C479.119 814.803 478.559 815.258 478.165 815.818C477.786 816.364 477.597 817.015 477.597 817.773C477.597 818.924 478.006 819.803 478.824 820.409C479.657 821.015 480.71 821.318 481.983 821.318ZM517.324 781.455V828H506.21V781.455H517.324ZM534.239 828.591C532.011 828.591 530.034 828.22 528.307 827.477C526.595 826.72 525.239 825.583 524.239 824.068C523.254 822.538 522.761 820.621 522.761 818.318C522.761 816.379 523.102 814.742 523.784 813.409C524.466 812.076 525.405 810.992 526.602 810.159C527.799 809.326 529.178 808.697 530.739 808.273C532.299 807.833 533.966 807.538 535.739 807.386C537.723 807.205 539.322 807.015 540.534 806.818C541.746 806.606 542.625 806.311 543.17 805.932C543.731 805.538 544.011 804.985 544.011 804.273V804.159C544.011 802.992 543.61 802.091 542.807 801.455C542.004 800.818 540.92 800.5 539.557 800.5C538.087 800.5 536.905 800.818 536.011 801.455C535.117 802.091 534.549 802.97 534.307 804.091L524.057 803.727C524.36 801.606 525.14 799.712 526.398 798.045C527.67 796.364 529.413 795.045 531.625 794.091C533.852 793.121 536.527 792.636 539.648 792.636C541.875 792.636 543.928 792.902 545.807 793.432C547.686 793.947 549.322 794.705 550.716 795.705C552.11 796.689 553.186 797.902 553.943 799.341C554.716 800.78 555.102 802.424 555.102 804.273V828H544.648V823.136H544.375C543.754 824.318 542.958 825.318 541.989 826.136C541.034 826.955 539.905 827.568 538.602 827.977C537.314 828.386 535.86 828.591 534.239 828.591ZM537.67 821.318C538.867 821.318 539.943 821.076 540.898 820.591C541.867 820.106 542.64 819.439 543.216 818.591C543.792 817.727 544.08 816.727 544.08 815.591V812.273C543.761 812.439 543.375 812.591 542.92 812.727C542.481 812.864 541.996 812.992 541.466 813.114C540.936 813.235 540.39 813.341 539.83 813.432C539.269 813.523 538.731 813.606 538.216 813.682C537.17 813.848 536.277 814.106 535.534 814.455C534.807 814.803 534.246 815.258 533.852 815.818C533.473 816.364 533.284 817.015 533.284 817.773C533.284 818.924 533.693 819.803 534.511 820.409C535.345 821.015 536.398 821.318 537.67 821.318ZM561.898 828V793.091H572.466V799.5H572.852C573.58 797.379 574.807 795.705 576.534 794.477C578.261 793.25 580.322 792.636 582.716 792.636C585.14 792.636 587.216 793.258 588.943 794.5C590.67 795.742 591.769 797.409 592.239 799.5H592.602C593.254 797.424 594.527 795.765 596.42 794.523C598.314 793.265 600.549 792.636 603.125 792.636C606.428 792.636 609.11 793.697 611.17 795.818C613.231 797.924 614.261 800.818 614.261 804.5V828H603.148V807.045C603.148 805.303 602.701 803.977 601.807 803.068C600.913 802.144 599.754 801.682 598.33 801.682C596.799 801.682 595.595 802.182 594.716 803.182C593.852 804.167 593.42 805.492 593.42 807.159V828H582.739V806.932C582.739 805.311 582.299 804.03 581.42 803.091C580.542 802.152 579.383 801.682 577.943 801.682C576.973 801.682 576.117 801.917 575.375 802.386C574.633 802.841 574.049 803.492 573.625 804.341C573.216 805.189 573.011 806.189 573.011 807.341V828H561.898ZM630.989 828.591C628.761 828.591 626.784 828.22 625.057 827.477C623.345 826.72 621.989 825.583 620.989 824.068C620.004 822.538 619.511 820.621 619.511 818.318C619.511 816.379 619.852 814.742 620.534 813.409C621.216 812.076 622.155 810.992 623.352 810.159C624.549 809.326 625.928 808.697 627.489 808.273C629.049 807.833 630.716 807.538 632.489 807.386C634.473 807.205 636.072 807.015 637.284 806.818C638.496 806.606 639.375 806.311 639.92 805.932C640.481 805.538 640.761 804.985 640.761 804.273V804.159C640.761 802.992 640.36 802.091 639.557 801.455C638.754 800.818 637.67 800.5 636.307 800.5C634.837 800.5 633.655 800.818 632.761 801.455C631.867 802.091 631.299 802.97 631.057 804.091L620.807 803.727C621.11 801.606 621.89 799.712 623.148 798.045C624.42 796.364 626.163 795.045 628.375 794.091C630.602 793.121 633.277 792.636 636.398 792.636C638.625 792.636 640.678 792.902 642.557 793.432C644.436 793.947 646.072 794.705 647.466 795.705C648.86 796.689 649.936 797.902 650.693 799.341C651.466 800.78 651.852 802.424 651.852 804.273V828H641.398V823.136H641.125C640.504 824.318 639.708 825.318 638.739 826.136C637.784 826.955 636.655 827.568 635.352 827.977C634.064 828.386 632.61 828.591 630.989 828.591ZM634.42 821.318C635.617 821.318 636.693 821.076 637.648 820.591C638.617 820.106 639.39 819.439 639.966 818.591C640.542 817.727 640.83 816.727 640.83 815.591V812.273C640.511 812.439 640.125 812.591 639.67 812.727C639.231 812.864 638.746 812.992 638.216 813.114C637.686 813.235 637.14 813.341 636.58 813.432C636.019 813.523 635.481 813.606 634.966 813.682C633.92 813.848 633.027 814.106 632.284 814.455C631.557 814.803 630.996 815.258 630.602 815.818C630.223 816.364 630.034 817.015 630.034 817.773C630.034 818.924 630.443 819.803 631.261 820.409C632.095 821.015 633.148 821.318 634.42 821.318ZM669.761 808.091V828H658.648V793.091H669.216V799.5H669.602C670.375 797.364 671.693 795.689 673.557 794.477C675.42 793.25 677.64 792.636 680.216 792.636C682.67 792.636 684.799 793.189 686.602 794.295C688.42 795.386 689.83 796.917 690.83 798.886C691.845 800.841 692.345 803.129 692.33 805.75V828H681.216V807.932C681.231 805.992 680.739 804.477 679.739 803.386C678.754 802.295 677.383 801.75 675.625 801.75C674.458 801.75 673.428 802.008 672.534 802.523C671.655 803.023 670.973 803.742 670.489 804.682C670.019 805.621 669.777 806.758 669.761 808.091ZM290.406 867.591V858.455H329.747V867.591H315.634V905H304.543V867.591H290.406ZM335.241 905V870.091H346.355V905H335.241ZM340.81 866.023C339.249 866.023 337.908 865.508 336.787 864.477C335.666 863.432 335.105 862.174 335.105 860.705C335.105 859.25 335.666 858.008 336.787 856.977C337.908 855.932 339.249 855.409 340.81 855.409C342.385 855.409 343.726 855.932 344.832 856.977C345.954 858.008 346.514 859.25 346.514 860.705C346.514 862.174 345.954 863.432 344.832 864.477C343.726 865.508 342.385 866.023 340.81 866.023ZM366.179 905.5C363.603 905.5 361.262 904.833 359.156 903.5C357.05 902.167 355.368 900.167 354.111 897.5C352.853 894.833 352.224 891.523 352.224 887.568C352.224 883.462 352.876 880.083 354.179 877.432C355.482 874.78 357.187 872.818 359.293 871.545C361.414 870.273 363.694 869.636 366.134 869.636C367.967 869.636 369.535 869.955 370.838 870.591C372.141 871.212 373.217 872.015 374.065 873C374.914 873.985 375.558 875.008 375.997 876.068H376.224V858.455H387.338V905H376.338V899.341H375.997C375.527 900.417 374.861 901.424 373.997 902.364C373.134 903.303 372.05 904.061 370.747 904.636C369.459 905.212 367.937 905.5 366.179 905.5ZM370.043 896.841C371.391 896.841 372.543 896.462 373.497 895.705C374.452 894.932 375.187 893.848 375.702 892.455C376.217 891.061 376.474 889.424 376.474 887.545C376.474 885.636 376.217 883.992 375.702 882.614C375.202 881.235 374.467 880.174 373.497 879.432C372.543 878.689 371.391 878.318 370.043 878.318C368.664 878.318 367.497 878.697 366.543 879.455C365.588 880.212 364.861 881.28 364.361 882.659C363.876 884.038 363.634 885.667 363.634 887.545C363.634 889.424 363.884 891.061 364.384 892.455C364.884 893.848 365.603 894.932 366.543 895.705C367.497 896.462 368.664 896.841 370.043 896.841ZM404.207 905.591C401.98 905.591 400.003 905.22 398.276 904.477C396.563 903.72 395.207 902.583 394.207 901.068C393.223 899.538 392.73 897.621 392.73 895.318C392.73 893.379 393.071 891.742 393.753 890.409C394.435 889.076 395.374 887.992 396.571 887.159C397.768 886.326 399.147 885.697 400.707 885.273C402.268 884.833 403.935 884.538 405.707 884.386C407.692 884.205 409.291 884.015 410.503 883.818C411.715 883.606 412.594 883.311 413.139 882.932C413.7 882.538 413.98 881.985 413.98 881.273V881.159C413.98 879.992 413.579 879.091 412.776 878.455C411.973 877.818 410.889 877.5 409.526 877.5C408.056 877.5 406.874 877.818 405.98 878.455C405.086 879.091 404.518 879.97 404.276 881.091L394.026 880.727C394.329 878.606 395.109 876.712 396.366 875.045C397.639 873.364 399.382 872.045 401.594 871.091C403.821 870.121 406.495 869.636 409.616 869.636C411.844 869.636 413.897 869.902 415.776 870.432C417.654 870.947 419.291 871.705 420.685 872.705C422.079 873.689 423.154 874.902 423.912 876.341C424.685 877.78 425.071 879.424 425.071 881.273V905H414.616V900.136H414.344C413.723 901.318 412.927 902.318 411.957 903.136C411.003 903.955 409.874 904.568 408.571 904.977C407.283 905.386 405.829 905.591 404.207 905.591ZM407.639 898.318C408.836 898.318 409.912 898.076 410.866 897.591C411.836 897.106 412.609 896.439 413.185 895.591C413.76 894.727 414.048 893.727 414.048 892.591V889.273C413.73 889.439 413.344 889.591 412.889 889.727C412.45 889.864 411.965 889.992 411.435 890.114C410.904 890.235 410.359 890.341 409.798 890.432C409.238 890.523 408.7 890.606 408.185 890.682C407.139 890.848 406.245 891.106 405.503 891.455C404.776 891.803 404.215 892.258 403.821 892.818C403.442 893.364 403.253 894.015 403.253 894.773C403.253 895.924 403.662 896.803 404.48 897.409C405.313 898.015 406.366 898.318 407.639 898.318ZM441.889 895.841L441.935 882.591H443.48L453.298 870.091H465.889L451.298 888H448.366L441.889 895.841ZM431.866 905V858.455H442.98V905H431.866ZM453.548 905L444.412 890.5L451.73 882.614L466.389 905H453.548ZM500.821 905H483.616V858.455H500.798C505.541 858.455 509.624 859.386 513.048 861.25C516.488 863.098 519.139 865.765 521.003 869.25C522.866 872.72 523.798 876.871 523.798 881.705C523.798 886.553 522.866 890.72 521.003 894.205C519.154 897.689 516.51 900.364 513.071 902.227C509.632 904.076 505.548 905 500.821 905ZM494.866 895.409H500.389C502.995 895.409 505.2 894.97 507.003 894.091C508.821 893.197 510.192 891.75 511.116 889.75C512.056 887.735 512.526 885.053 512.526 881.705C512.526 878.356 512.056 875.689 511.116 873.705C510.177 871.705 508.791 870.265 506.957 869.386C505.139 868.492 502.897 868.045 500.23 868.045H494.866V895.409ZM530.366 905V870.091H541.48V905H530.366ZM535.935 866.023C534.374 866.023 533.033 865.508 531.912 864.477C530.791 863.432 530.23 862.174 530.23 860.705C530.23 859.25 530.791 858.008 531.912 856.977C533.033 855.932 534.374 855.409 535.935 855.409C537.51 855.409 538.851 855.932 539.957 856.977C541.079 858.008 541.639 859.25 541.639 860.705C541.639 862.174 541.079 863.432 539.957 864.477C538.851 865.508 537.51 866.023 535.935 866.023ZM568.259 870.091V878.273H546.236V870.091H568.259ZM550.849 861.727H561.963V894.023C561.963 894.705 562.069 895.258 562.281 895.682C562.509 896.091 562.834 896.386 563.259 896.568C563.683 896.735 564.19 896.818 564.781 896.818C565.205 896.818 565.652 896.78 566.122 896.705C566.607 896.614 566.971 896.538 567.213 896.477L568.895 904.5C568.365 904.652 567.615 904.841 566.645 905.068C565.69 905.295 564.546 905.439 563.213 905.5C560.607 905.621 558.372 905.318 556.509 904.591C554.66 903.848 553.243 902.697 552.259 901.136C551.289 899.576 550.819 897.614 550.849 895.25V861.727ZM589.872 905.659C586.221 905.659 583.069 904.939 580.418 903.5C577.781 902.045 575.751 899.977 574.327 897.295C572.918 894.598 572.213 891.394 572.213 887.682C572.213 884.076 572.925 880.924 574.349 878.227C575.774 875.515 577.781 873.409 580.372 871.909C582.963 870.394 586.016 869.636 589.531 869.636C592.016 869.636 594.289 870.023 596.349 870.795C598.41 871.568 600.19 872.712 601.69 874.227C603.19 875.742 604.357 877.614 605.19 879.841C606.024 882.053 606.44 884.591 606.44 887.455V890.227H576.099V883.773H596.099C596.084 882.591 595.804 881.538 595.259 880.614C594.713 879.689 593.963 878.97 593.009 878.455C592.069 877.924 590.986 877.659 589.759 877.659C588.516 877.659 587.402 877.939 586.418 878.5C585.433 879.045 584.652 879.795 584.077 880.75C583.501 881.689 583.198 882.758 583.168 883.955V890.523C583.168 891.947 583.448 893.197 584.009 894.273C584.569 895.333 585.365 896.159 586.395 896.75C587.425 897.341 588.652 897.636 590.077 897.636C591.062 897.636 591.955 897.5 592.759 897.227C593.562 896.955 594.251 896.553 594.827 896.023C595.402 895.492 595.834 894.841 596.122 894.068L606.327 894.364C605.902 896.652 604.971 898.644 603.531 900.341C602.107 902.023 600.236 903.333 597.918 904.273C595.599 905.197 592.918 905.659 589.872 905.659ZM612.116 905V870.091H622.685V876.5H623.071C623.798 874.379 625.026 872.705 626.753 871.477C628.48 870.25 630.541 869.636 632.935 869.636C635.359 869.636 637.435 870.258 639.162 871.5C640.889 872.742 641.988 874.409 642.457 876.5H642.821C643.473 874.424 644.745 872.765 646.639 871.523C648.533 870.265 650.768 869.636 653.344 869.636C656.647 869.636 659.329 870.697 661.389 872.818C663.45 874.924 664.48 877.818 664.48 881.5V905H653.366V884.045C653.366 882.303 652.92 880.977 652.026 880.068C651.132 879.144 649.973 878.682 648.548 878.682C647.018 878.682 645.813 879.182 644.935 880.182C644.071 881.167 643.639 882.492 643.639 884.159V905H632.957V883.932C632.957 882.311 632.518 881.03 631.639 880.091C630.76 879.152 629.601 878.682 628.162 878.682C627.192 878.682 626.336 878.917 625.594 879.386C624.851 879.841 624.268 880.492 623.844 881.341C623.435 882.189 623.23 883.189 623.23 884.341V905H612.116ZM693.889 889.932V870.091H704.98V905H694.389V898.5H694.026C693.253 900.636 691.935 902.333 690.071 903.591C688.223 904.833 685.988 905.455 683.366 905.455C680.988 905.455 678.897 904.909 677.094 903.818C675.291 902.727 673.889 901.205 672.889 899.25C671.889 897.28 671.382 894.977 671.366 892.341V870.091H682.48V890.159C682.495 892.053 682.995 893.545 683.98 894.636C684.965 895.727 686.306 896.273 688.003 896.273C689.109 896.273 690.101 896.03 690.98 895.545C691.874 895.045 692.579 894.326 693.094 893.386C693.624 892.432 693.889 891.28 693.889 889.932ZM722.077 895.841L722.122 882.591H723.668L733.486 870.091H746.077L731.486 888H728.554L722.077 895.841ZM712.054 905V858.455H723.168V905H712.054ZM733.736 905L724.599 890.5L731.918 882.614L746.577 905H733.736ZM759.895 905.591C757.668 905.591 755.69 905.22 753.963 904.477C752.251 903.72 750.895 902.583 749.895 901.068C748.91 899.538 748.418 897.621 748.418 895.318C748.418 893.379 748.759 891.742 749.44 890.409C750.122 889.076 751.062 887.992 752.259 887.159C753.455 886.326 754.834 885.697 756.395 885.273C757.955 884.833 759.622 884.538 761.395 884.386C763.38 884.205 764.978 884.015 766.19 883.818C767.402 883.606 768.281 883.311 768.827 882.932C769.387 882.538 769.668 881.985 769.668 881.273V881.159C769.668 879.992 769.266 879.091 768.463 878.455C767.66 877.818 766.577 877.5 765.213 877.5C763.743 877.5 762.562 877.818 761.668 878.455C760.774 879.091 760.205 879.97 759.963 881.091L749.713 880.727C750.016 878.606 750.796 876.712 752.054 875.045C753.327 873.364 755.069 872.045 757.281 871.091C759.509 870.121 762.183 869.636 765.304 869.636C767.531 869.636 769.584 869.902 771.463 870.432C773.342 870.947 774.978 871.705 776.372 872.705C777.766 873.689 778.842 874.902 779.599 876.341C780.372 877.78 780.759 879.424 780.759 881.273V905H770.304V900.136H770.031C769.41 901.318 768.615 902.318 767.645 903.136C766.69 903.955 765.562 904.568 764.259 904.977C762.971 905.386 761.516 905.591 759.895 905.591ZM763.327 898.318C764.524 898.318 765.599 898.076 766.554 897.591C767.524 897.106 768.296 896.439 768.872 895.591C769.448 894.727 769.736 893.727 769.736 892.591V889.273C769.418 889.439 769.031 889.591 768.577 889.727C768.137 889.864 767.652 889.992 767.122 890.114C766.592 890.235 766.046 890.341 765.486 890.432C764.925 890.523 764.387 890.606 763.872 890.682C762.827 890.848 761.933 891.106 761.19 891.455C760.463 891.803 759.902 892.258 759.509 892.818C759.13 893.364 758.94 894.015 758.94 894.773C758.94 895.924 759.349 896.803 760.168 897.409C761.001 898.015 762.054 898.318 763.327 898.318ZM798.668 885.091V905H787.554V870.091H798.122V876.5H798.509C799.281 874.364 800.599 872.689 802.463 871.477C804.327 870.25 806.546 869.636 809.122 869.636C811.577 869.636 813.705 870.189 815.509 871.295C817.327 872.386 818.736 873.917 819.736 875.886C820.751 877.841 821.251 880.129 821.236 882.75V905H810.122V884.932C810.137 882.992 809.645 881.477 808.645 880.386C807.66 879.295 806.289 878.75 804.531 878.75C803.365 878.75 802.334 879.008 801.44 879.523C800.562 880.023 799.88 880.742 799.395 881.682C798.925 882.621 798.683 883.758 798.668 885.091Z" fill="white"/>
</g>
<path d="M462.567 560.858V549.344L487.594 509.909H497.826V525.54H491.89L477.243 548.747V549.224H513.486V560.858H462.567ZM492.069 571V557.338L492.367 552.297V509.909H506.178V571H492.069ZM546.493 572.491C541.163 572.491 536.569 571.229 532.711 568.703C528.853 566.158 525.88 562.509 523.792 557.756C521.704 552.983 520.67 547.246 520.69 540.544C520.71 533.842 521.754 528.155 523.822 523.482C525.91 518.788 528.873 515.219 532.711 512.773C536.569 510.307 541.163 509.074 546.493 509.074C551.822 509.074 556.416 510.307 560.274 512.773C564.152 515.219 567.135 518.788 569.223 523.482C571.311 528.175 572.345 533.862 572.325 540.544C572.325 547.266 571.281 553.013 569.193 557.786C567.105 562.558 564.132 566.207 560.274 568.733C556.436 571.239 551.842 572.491 546.493 572.491ZM546.493 560.411C549.674 560.411 552.25 558.79 554.218 555.548C556.187 552.287 557.162 547.286 557.142 540.544C557.142 536.129 556.694 532.49 555.799 529.626C554.904 526.743 553.662 524.595 552.071 523.183C550.48 521.771 548.62 521.065 546.493 521.065C543.331 521.065 540.775 522.666 538.826 525.868C536.877 529.05 535.893 533.942 535.873 540.544C535.853 545.018 536.281 548.727 537.156 551.67C538.051 554.614 539.304 556.811 540.914 558.263C542.525 559.695 544.385 560.411 546.493 560.411ZM580.036 560.858V549.344L605.063 509.909H615.294V525.54H609.358L594.712 548.747V549.224H630.955V560.858H580.036ZM609.537 571V557.338L609.836 552.297V509.909H623.647V571H609.537Z" fill="#4080F4"/>
<defs>
<filter id="filter0_d_515_4523" x="287.406" y="781.455" width="538.853" height="133.227" filterUnits="userSpaceOnUse" color-interpolation-filters="sRGB">
<feFlood flood-opacity="0" result="BackgroundImageFix"/>
<feColorMatrix in="SourceAlpha" type="matrix" values="0 0 0 0 0 0 0 0 0 0 0 0 0 0 0 0 0 0 127 0" result="hardAlpha"/>
<feOffset dx="1" dy="5"/>
<feGaussianBlur stdDeviation="2"/>
<feComposite in2="hardAlpha" operator="out"/>
<feColorMatrix type="matrix" values="0 0 0 0 0 0 0 0 0 0 0 0 0 0 0 0 0 0 0.275 0"/>
<feBlend mode="normal" in2="BackgroundImageFix" result="effect1_dropShadow_515_4523"/>
<feBlend mode="normal" in="SourceGraphic" in2="effect1_dropShadow_515_4523" result="shape"/>
</filter>
</defs>
</svg>
